<?xml version="1.0" encoding="UTF-8"?>
<svg width="36px" height="36px" viewBox="0 0 36 36" version="1.1" xmlns="http://www.w3.org/2000/svg" xmlns:xlink="http://www.w3.org/1999/xlink">
    <!-- Generator: Sketch 48.2 (47327) - http://www.bohemiancoding.com/sketch -->
    <title>Combined Shape</title>
    <desc>Created with Sketch.</desc>
    <defs>
        <path d="M18.000224,3.00298626 C9.73058929,3.00298626 3.00298626,9.73058929 3.00298626,18 C3.00298626,26.2694107 9.73058929,32.9970137 18.000224,32.9970137 C26.2694107,32.9970137 32.9970137,26.2694107 32.9970137,18 C32.9970137,9.73058929 26.2694107,3.00298626 18.000224,3.00298626 M18.000224,36 C15.5706002,36 13.2133187,35.5240643 10.9933307,34.5851832 C8.84949234,33.6781057 6.9246964,32.380649 5.27202369,30.7279763 C3.61935099,29.0753036 2.32189429,27.1505077 1.41526478,25.0068933 C0.476159666,22.7869052 0,20.4291758 0,18 C0,15.5706002 0.476159666,13.2133187 1.41526478,10.9933307 C2.32189429,8.84949234 3.61935099,6.9246964 5.27202369,5.27224766 C6.9246964,3.61935099 8.84949234,2.32189429 10.9933307,1.41504081 C13.2133187,0.476383635 15.5706002,0 18.000224,0 C20.4291758,0 22.7866813,0.476383635 25.0068933,1.41504081 C27.1505077,2.32189429 29.0750796,3.61935099 30.7277523,5.27224766 C32.380649,6.9246964 33.6781057,8.84949234 34.5849592,10.9933307 C35.5238403,13.2133187 36,15.5706002 36,18 C36,20.4291758 35.5238403,22.7869052 34.5849592,25.0068933 C33.6781057,27.1505077 32.380649,29.0753036 30.7277523,30.7279763 C29.0750796,32.380649 27.1505077,33.6781057 25.0068933,34.5851832 C22.7866813,35.5240643 20.4291758,36 18.000224,36 Z M21.1363533,12.9463868 L20.8021822,10.1978347 L23.0380034,10.1978347 L23.0380034,12.9463868 L21.1363533,12.9463868 Z M21.3420139,24.4072108 L21.8558375,28.7503426 L21.5983793,28.7503426 L18.9263216,24.4072108 L21.3420139,24.4072108 Z M16.973311,26.9004902 L18.0781083,25.1275692 L19.2093508,26.9004902 L16.973311,26.9004902 Z M14.5576187,28.7503426 L14.325513,28.7503426 L14.8139842,24.4072108 L17.2559031,24.4072108 L14.5576187,28.7503426 Z M13.1179947,12.9463868 L13.1179947,10.1978347 L15.3793869,10.1978347 L15.0458714,12.9463868 L13.1179947,12.9463868 Z M20.6741087,18.7291428 L21.2384187,23.3548667 L14.9427133,23.3548667 L15.4827635,18.7291428 L20.6741087,18.7291428 Z M16.0483848,14.0511841 L20.134277,14.0511841 L20.5707321,17.6761431 L15.6117112,17.6761431 L16.0483848,14.0511841 Z M16.4850584,10.1978347 L19.6960736,10.1978347 L20.0053294,12.9463868 L16.1760211,12.9463868 L16.4850584,10.1978347 Z M16.921732,6.52173375 L19.2600556,6.52173375 L19.5684372,9.14330517 L16.614006,9.14330517 L16.921732,6.52173375 Z M24.0654321,14.0511841 L24.0654321,9.14330517 L20.6992426,9.14330517 L20.2367795,5.21520988 L15.9450081,5.21520988 L15.4827635,9.14330517 L12.0654321,9.14330517 L12.0654321,14.0511841 L14.9171423,14.0511841 L13.1179947,29.7790827 L15.1483739,29.7790827 L16.4850584,27.6706792 L17.1013845,28.9560032 L17.127174,28.9560032 L19.0552693,28.9560032 L19.6709397,27.646201 L21.0327581,29.7790827 L23.0640115,29.7790827 L21.2384187,14.0511841 L24.0654321,14.0511841 Z" id="path-1"></path>
    </defs>
    <g id="Branding/Oil-Derrick-LOGO" stroke="none" stroke-width="1" fill="none" fill-rule="evenodd">
        <mask id="mask-2" fill="white">
            <use xlink:href="#path-1"></use>
        </mask>
        <use id="Combined-Shape" fill="#FFFFFF" xlink:href="#path-1"></use>
    </g>
</svg>